<?xml version="1.0" standalone="no"?>
<!DOCTYPE svg PUBLIC "-//W3C//DTD SVG 20010904//EN"
 "http://www.w3.org/TR/2001/REC-SVG-20010904/DTD/svg10.dtd">
<svg version="1.0" xmlns="http://www.w3.org/2000/svg"
 width="100%" height="100%" viewBox="0 0 400 400"
 preserveAspectRatio="xMidYMid meet">

<g transform="translate(0.000000,400.000000) scale(0.100000,-0.100000)"
fill="#000000" stroke="none">
<path d="M1454 2736 c-43 -19 -72 -44 -103 -91 l-26 -40 -3 -590 -3 -590 28
-54 c18 -35 44 -66 71 -85 l44 -31 291 0 292 0 0 25 0 25 -275 5 c-253 5 -278
7 -310 25 -72 42 -70 23 -70 662 0 583 2 609 39 644 45 42 58 44 341 49 l275
5 0 25 0 25 -280 2 c-219 2 -287 -1 -311 -11z"/>
<path d="M2345 2300 c-18 -20 -18 -22 36 -76 30 -31 80 -81 112 -112 31 -30
57 -61 57 -69 0 -11 -77 -13 -439 -13 -384 0 -440 -2 -451 -16 -11 -12 -11
-18 1 -29 12 -12 85 -15 446 -15 286 -1 434 -4 439 -11 3 -6 -43 -60 -102
-120 -60 -60 -110 -112 -112 -117 -1 -5 6 -16 17 -26 19 -17 24 -13 175 137
86 85 156 160 156 167 0 10 -262 278 -301 308 -13 10 -19 8 -34 -8z"/>
</g>
</svg>
